<svg width="34" height="28" viewBox="0 0 34 28" fill="none" xmlns="http://www.w3.org/2000/svg">
<path d="M32.002 0C33.1065 0 34.002 0.895431 34.002 2V26.9971C34.0019 27.8431 33.0163 28.3068 32.3643 27.7676L26.7158 23.0967H2C0.895457 23.0967 4.33521e-05 22.2012 0 21.0967V2C0 0.895431 0.895431 1.30071e-08 2 0H32.002Z" fill="url(#paint0_linear_3_2)"/>
<mask id="path-2-inside-1_3_2" fill="white">
<path fill-rule="evenodd" clip-rule="evenodd" d="M27.1594 19.1449C26.6071 19.1449 26.1594 18.6971 26.1594 18.1449L26.1594 17.7892C26.1594 16.7245 25.422 15.51 23.6965 14.4867C22.0038 13.4828 19.5775 12.8184 16.8254 12.8184C14.0733 12.8184 11.647 13.4828 9.95428 14.4867C8.22882 15.51 7.49141 16.7245 7.49141 17.7892L7.49141 18.1449C7.49141 18.6972 7.0437 19.1449 6.49141 19.1449L5.82456 19.1449C5.27227 19.1449 4.82456 18.6972 4.82456 18.1449L4.82456 17.7892C4.82456 15.3598 6.47513 13.4111 8.61052 12.1447C10.7787 10.8589 13.686 10.1071 16.8254 10.1071C19.9648 10.1071 22.8722 10.8589 25.0403 12.1447C27.1757 13.4111 28.8263 15.3598 28.8263 17.7892L28.8263 18.1449C28.8263 18.6971 28.3785 19.1449 27.8263 19.1449L27.1594 19.1449Z"/>
</mask>
<path fill-rule="evenodd" clip-rule="evenodd" d="M27.1594 19.1449C26.6071 19.1449 26.1594 18.6971 26.1594 18.1449L26.1594 17.7892C26.1594 16.7245 25.422 15.51 23.6965 14.4867C22.0038 13.4828 19.5775 12.8184 16.8254 12.8184C14.0733 12.8184 11.647 13.4828 9.95428 14.4867C8.22882 15.51 7.49141 16.7245 7.49141 17.7892L7.49141 18.1449C7.49141 18.6972 7.0437 19.1449 6.49141 19.1449L5.82456 19.1449C5.27227 19.1449 4.82456 18.6972 4.82456 18.1449L4.82456 17.7892C4.82456 15.3598 6.47513 13.4111 8.61052 12.1447C10.7787 10.8589 13.686 10.1071 16.8254 10.1071C19.9648 10.1071 22.8722 10.8589 25.0403 12.1447C27.1757 13.4111 28.8263 15.3598 28.8263 17.7892L28.8263 18.1449C28.8263 18.6971 28.3785 19.1449 27.8263 19.1449L27.1594 19.1449Z" fill="white"/>
<path d="M23.6965 14.4867L25.2268 11.9064L25.2268 11.9064L23.6965 14.4867ZM9.95428 14.4867L11.4846 17.0671L9.95428 14.4867ZM8.61052 12.1447L10.1408 14.7251L8.61052 12.1447ZM25.0403 12.1447L26.5706 9.56437L25.0403 12.1447ZM26.1594 17.7892L23.1594 17.7892L23.1594 18.1449L26.1594 18.1449L29.1594 18.1449L29.1594 17.7892L26.1594 17.7892ZM23.6965 14.4867L22.1662 17.0671C22.7529 17.415 23.022 17.7083 23.1271 17.8568C23.2254 17.9955 23.1594 17.9707 23.1594 17.7892L26.1594 17.7892L29.1594 17.7892C29.1594 15.2512 27.4396 13.2187 25.2268 11.9064L23.6965 14.4867ZM16.8254 12.8184L16.8254 15.8184C19.1331 15.8184 21.0115 16.3822 22.1662 17.0671L23.6965 14.4867L25.2268 11.9064C22.9962 10.5834 20.0219 9.8184 16.8254 9.8184L16.8254 12.8184ZM9.95428 14.4867L11.4846 17.0671C12.6393 16.3822 14.5177 15.8184 16.8254 15.8184L16.8254 12.8184L16.8254 9.8184C13.6289 9.8184 10.6546 10.5834 8.42397 11.9064L9.95428 14.4867ZM7.49141 17.7892L10.4914 17.7892C10.4914 17.9707 10.4254 17.9955 10.5237 17.8568C10.6289 17.7083 10.8979 17.415 11.4846 17.0671L9.95428 14.4867L8.42397 11.9064C6.21122 13.2187 4.49141 15.2512 4.49141 17.7892L7.49141 17.7892ZM7.49141 18.1449L10.4914 18.1449L10.4914 17.7892L7.49141 17.7892L4.49141 17.7892L4.49141 18.1449L7.49141 18.1449ZM5.82456 19.1449L5.82456 22.1449L6.49141 22.1449L6.49141 19.1449L6.49141 16.1449L5.82456 16.1449L5.82456 19.1449ZM4.82456 17.7892L1.82456 17.7892L1.82456 18.1449L4.82456 18.1449L7.82456 18.1449L7.82456 17.7892L4.82456 17.7892ZM8.61052 12.1447L7.08022 9.56437C4.48057 11.1061 1.82456 13.8678 1.82456 17.7892L4.82456 17.7892L7.82456 17.7892C7.82456 16.8519 8.46969 15.7161 10.1408 14.7251L8.61052 12.1447ZM16.8254 10.1071L16.8254 7.10706C13.2421 7.10706 9.78661 7.95931 7.08022 9.56437L8.61052 12.1447L10.1408 14.7251C11.7707 13.7584 14.13 13.1071 16.8254 13.1071L16.8254 10.1071ZM25.0403 12.1447L26.5706 9.56437C23.8642 7.95931 20.4088 7.10706 16.8254 7.10706L16.8254 10.1071L16.8254 13.1071C19.5208 13.1071 21.8801 13.7584 23.51 14.7251L25.0403 12.1447ZM28.8263 17.7892L31.8263 17.7892C31.8263 13.8678 29.1702 11.1061 26.5706 9.56437L25.0403 12.1447L23.51 14.7251C25.1811 15.7161 25.8263 16.8519 25.8263 17.7892L28.8263 17.7892ZM28.8263 18.1449L31.8263 18.1449L31.8263 17.7892L28.8263 17.7892L25.8263 17.7892L25.8263 18.1449L28.8263 18.1449ZM27.1594 19.1449L27.1594 22.1449L27.8263 22.1449L27.8263 19.1449L27.8263 16.1449L27.1594 16.1449L27.1594 19.1449ZM28.8263 18.1449L25.8263 18.1449C25.8263 17.0403 26.7217 16.1449 27.8263 16.1449L27.8263 19.1449L27.8263 22.1449C30.0354 22.1449 31.8263 20.354 31.8263 18.1449L28.8263 18.1449ZM5.82456 19.1449L5.82456 16.1449C6.92912 16.1449 7.82456 17.0403 7.82456 18.1449L4.82456 18.1449L1.82456 18.1449C1.82456 20.354 3.61542 22.1449 5.82456 22.1449L5.82456 19.1449ZM7.49141 18.1449L4.49141 18.1449C4.49141 17.0403 5.38684 16.1449 6.49141 16.1449L6.49141 19.1449L6.49141 22.1449C8.70055 22.1449 10.4914 20.354 10.4914 18.1449L7.49141 18.1449ZM26.1594 18.1449L23.1594 18.1449C23.1594 20.354 24.9503 22.1449 27.1594 22.1449L27.1594 19.1449L27.1594 16.1449C28.264 16.1449 29.1594 17.0403 29.1594 18.1449L26.1594 18.1449Z" fill="white" mask="url(#path-2-inside-1_3_2)"/>
<defs>
<linearGradient id="paint0_linear_3_2" x1="0" y1="0" x2="34.6746" y2="0.859367" gradientUnits="userSpaceOnUse">
<stop stop-color="#5097FA"/>
<stop offset="1" stop-color="#5363FF"/>
</linearGradient>
</defs>
</svg>
